# xmcd CD database file
#
# Track frame offsets:
#	150
#	22564
#	52848
#	71711
#	98863
#	121831
#	137677
#	157014
#	183225
#
# Disc length: 2719 seconds
#
# Revision: 0
# Processed by: cddbd v1.5.1PL0 Copyright (c) Steve Scherf et al.
# Submitted via: ACXtractor (MTCDDB.DLL V2003.12.21)
#
DISCID=6a0a9d09
DTITLE=Jony James Blues Band - In This World
DYEAR=2003
DGENRE=Blues
TTITLE0=Hit The Street
TTITLE1=I Don't Know Love
TTITLE2=Time Is All Got
TTITLE3=Voices
TTITLE4=Don't Let It Blow Your Mind
TTITLE5=Time Flies
TTITLE6=Come Back Home
TTITLE7=The Chips Fall Where They May
TTITLE8=In This World
EXTD=ID3G:   0 YEAR: 2003
EXTT0=
EXTT1=
EXTT2=
EXTT3=
EXTT4=
EXTT5=
EXTT6=
EXTT7=
EXTT8=
PLAYORDER=
